<svg width="14" height="16" viewBox="0 0 14 16" fill="none" xmlns="http://www.w3.org/2000/svg">
<path d="M13.1181 4.02076C12.7819 3.24555 12.2972 2.54365 11.6914 1.95469C11.0835 1.3604 10.3669 0.88872 9.58064 0.565402C8.76278 0.226116 7.89492 0.0546875 7.00028 0.0546875C6.10564 0.0546875 5.23778 0.226116 4.41992 0.563616C3.62885 0.890402 2.91992 1.35826 2.30921 1.9529C1.70371 2.5422 1.21906 3.24401 0.882422 4.01897C0.534207 4.82254 0.357422 5.67612 0.357422 6.55469C0.357422 7.8154 0.659208 9.07076 1.25206 10.2815C1.72885 11.2547 2.39492 12.2029 3.23421 13.1047C4.66814 14.644 6.17171 15.585 6.59849 15.8368C6.71964 15.9084 6.8578 15.946 6.99849 15.9458C7.13778 15.9458 7.27528 15.91 7.39849 15.8368C7.82528 15.585 9.32885 14.644 10.7628 13.1047C11.6021 12.2047 12.2681 11.2547 12.7449 10.2815C13.3414 9.07254 13.6431 7.81897 13.6431 6.55647C13.6431 5.6779 13.4664 4.82433 13.1181 4.02076ZM7.00028 14.5761C5.82349 13.8279 1.64314 10.8654 1.64314 6.55647C1.64314 5.1654 2.19849 3.85826 3.20742 2.87254C4.21992 1.88504 5.56635 1.3404 7.00028 1.3404C8.43421 1.3404 9.78064 1.88504 10.7931 2.87433C11.8021 3.85826 12.3574 5.1654 12.3574 6.55647C12.3574 10.8654 8.17706 13.8279 7.00028 14.5761ZM7.00028 3.55469C5.26456 3.55469 3.85742 4.96183 3.85742 6.69754C3.85742 8.43326 5.26456 9.8404 7.00028 9.8404C8.73599 9.8404 10.1431 8.43326 10.1431 6.69754C10.1431 4.96183 8.73599 3.55469 7.00028 3.55469ZM8.41457 8.11183C8.22907 8.29786 8.00862 8.44538 7.7659 8.5459C7.52319 8.64642 7.26299 8.69795 7.00028 8.69754C6.46635 8.69754 5.96456 8.48862 5.58599 8.11183C5.39996 7.92633 5.25245 7.70589 5.15193 7.46317C5.05141 7.22045 4.99987 6.96025 5.00028 6.69754C5.00028 6.16362 5.20921 5.66183 5.58599 5.28326C5.96456 4.90469 6.46635 4.69754 7.00028 4.69754C7.53421 4.69754 8.03599 4.90469 8.41457 5.28326C8.79314 5.66183 9.00028 6.16362 9.00028 6.69754C9.00028 7.23147 8.79314 7.73326 8.41457 8.11183Z" fill="#4B5563"/>
</svg>
