<svg width="14" height="14" viewBox="0 0 14 14" fill="none" xmlns="http://www.w3.org/2000/svg">
<path d="M12.9981 8.42913H0.571275C0.492704 8.42913 0.428418 8.49341 0.428418 8.57199V9.64341C0.428418 9.72199 0.492704 9.78627 0.571275 9.78627H11.3784L8.80163 13.0541C8.72842 13.147 8.79449 13.2863 8.91413 13.2863H10.2088C10.2963 13.2863 10.3784 13.247 10.4338 13.1773L13.4481 9.35413C13.7427 8.97913 13.4766 8.42913 12.9981 8.42913ZM13.4284 4.21484H2.62127L5.19806 0.946987C5.27128 0.854129 5.2052 0.714844 5.08556 0.714844H3.79092C3.70342 0.714844 3.62128 0.75413 3.56592 0.823772L0.551632 4.64699C0.256989 5.02199 0.523061 5.57199 0.999846 5.57199H13.4284C13.507 5.57199 13.5713 5.5077 13.5713 5.42913V4.3577C13.5713 4.27913 13.507 4.21484 13.4284 4.21484Z" fill="#4B5563"/>
</svg>
