<svg width="17" height="17" viewBox="0 0 17 17" fill="none" xmlns="http://www.w3.org/2000/svg">
<path d="M14.9641 9.86611C14.8683 9.64082 14.6091 9.53636 14.3836 9.63175L12.03 10.6321C11.8049 10.7279 11.7002 10.9875 11.7956 11.2126C11.8914 11.4379 12.1506 11.5421 12.3761 11.4469L13.6103 10.8987C13.0108 13.0448 11.0755 14.613 8.86236 14.8263V4.92028C9.7476 4.70207 10.4213 3.92129 10.4213 2.99157C10.4213 1.89343 9.5555 1 8.45736 1C7.35922 1 6.42397 1.89343 6.42397 2.99157C6.42397 3.95404 7.09188 4.75873 7.97712 4.9433V14.837C5.76402 14.6834 3.78573 13.1003 3.18156 10.8571L4.59639 11.4467C4.82169 11.5421 5.095 11.4376 5.19083 11.2123C5.28644 10.9873 5.1884 10.7277 4.96354 10.6318L2.61346 9.63153C2.38794 9.53592 2.13012 9.6406 2.03473 9.86589L1.0353 12.2193C0.93969 12.4444 1.04503 12.704 1.27011 12.7998C1.32654 12.8237 1.38541 12.8352 1.44317 12.8352C1.61535 12.835 1.77934 12.7341 1.85082 12.5654L2.4207 11.225C3.20502 13.8999 5.63102 15.7377 8.4567 15.7377C11.2992 15.7377 13.7872 13.8094 14.5274 11.1008L15.1498 12.5654C15.2213 12.7341 15.385 12.8352 15.5574 12.8352C15.6152 12.8352 15.6738 12.8237 15.7303 12.7998C15.9553 12.704 16.0602 12.4444 15.9646 12.2193L14.9641 9.86611ZM7.37848 2.99179C7.37848 2.38164 7.87488 1.88546 8.48503 1.88546C9.09496 1.88546 9.59136 2.38164 9.59136 2.99179C9.59136 3.60194 9.09496 4.09834 8.48503 4.09834C7.87488 4.09834 7.37848 3.60172 7.37848 2.99179Z" fill="#9CA3AF" stroke="#9CA3AF" stroke-width="0.8"/>
</svg>
