<svg width="14" height="16" viewBox="0 0 14 16" fill="none" xmlns="http://www.w3.org/2000/svg">
<path d="M12.1799 8.40494L11.4333 11.0406C10.9133 10.7551 10.7199 10.4696 9.66659 9.26799C8.59992 10.4763 8.04659 11.2862 6.99992 11.2862C5.97992 11.2862 5.43992 10.5227 4.33325 9.26799C3.26659 10.4763 3.08659 10.7352 2.56659 11.0273L1.81325 8.3983L6.99992 6.71204L12.1799 8.40494ZM8.99992 0.664062H4.99992V2.65571H2.99992C2.26659 2.65571 1.66659 3.25321 1.66659 3.98348V7.05062L0.806585 7.32945C0.386585 7.45559 0.266585 7.88711 0.366585 8.17922L1.63325 12.614H1.66659C2.73325 12.614 3.67992 12.0297 4.33325 11.2862C4.98659 12.0297 5.93325 12.614 6.99992 12.614C8.06659 12.614 9.01325 12.0297 9.66659 11.2862C10.3199 12.0297 11.2666 12.614 12.3333 12.614H12.3666L13.6399 8.17922C13.7133 7.93358 13.6666 7.4755 13.1999 7.32945L12.3333 7.05062V3.98348C12.3333 3.25321 11.7333 2.65571 10.9999 2.65571H8.99992V0.664062ZM2.99992 6.61909V3.98348H10.9999V6.61909L6.99992 5.31124L2.99992 6.61909ZM9.66659 13.0654C8.85325 13.6297 7.92659 13.9152 6.99992 13.9152C6.07325 13.9152 5.14659 13.6297 4.33325 13.0654C3.51992 13.6297 2.59325 13.9417 1.66659 13.9417H0.333252V15.2695H1.66659C2.58659 15.2695 3.49325 15.0371 4.33325 14.6122C5.17325 15.0371 6.08659 15.2562 6.99992 15.2562C7.91325 15.2562 8.82659 15.0438 9.66659 14.6122C10.5066 15.0438 11.4133 15.2695 12.3333 15.2695H13.6666V13.9417H12.3333C11.4066 13.9417 10.4799 13.6297 9.66659 13.0654Z" fill="#4B5563"/>
</svg>
